P3
# Created by GIMP version 2.10.30 PNM plug-in
2 2
255
82
212
120
199
34
187
50
241
244
241
222
45
