P3
# Created by GIMP version 2.10.30 PNM plug-in
2 2
255
213
213
213
201
201
201
80
80
80
178
178
178
