P3
# Created by GIMP version 2.10.30 PNM plug-in
2 2
255
200
200
200
150
150
150
150
150
150
200
200
200
