P3
# Created by GIMP version 2.10.30 PNM plug-in
2 2
255
180
230
180
230
180
230
230
180
230
180
230
180
