P3
# Created by GIMP version 2.10.30 PNM plug-in
2 2
255
120
170
120
170
120
170
170
120
170
120
170
120
